/* XPM */
static char * maximize_active_xpm[] = {
"20 14 3 1",
" 	c None",
".	c #000000",
"+	c #FFFFFF",
" .................. ",
"....................",
"....................",
"......++++++++......",
"......++++++++......",
"......+......+......",
"......+......+......",
"......+......+......",
"......+......+......",
"......+......+......",
"......++++++++......",
"....................",
"....................",
" .................. "};
