/* XPM */
static char * title_5_active_xpm[] = {
"2 23 17 1",
" 	c None",
".	c #A0A2A0",
"+	c #909291",
"@	c #797B7B",
"#	c #787A7A",
"$	c #747675",
"%	c #6E6F70",
"&	c #696A6C",
"*	c #616264",
"=	c #5A5B5D",
"-	c #535456",
";	c #4D4E50",
">	c #464749",
",	c #434446",
"'	c #030406",
")	c #040507",
"!	c #050608",
"..",
"++",
"@@",
"##",
"$$",
"%%",
"&&",
"**",
"==",
"--",
";;",
">>",
",,",
"''",
"''",
"))",
"))",
"))",
"))",
"))",
"!!",
"))",
"''"};
